<?xml version="1.0" encoding="utf-8"?>
<!-- Generator: Adobe Illustrator 15.0.0, SVG Export Plug-In . SVG Version: 6.00 Build 0)  -->
<!DOCTYPE svg PUBLIC "-//W3C//DTD SVG 1.1//EN" "http://www.w3.org/Graphics/SVG/1.1/DTD/svg11.dtd">
<svg version="1.1" id="Layer_1" xmlns="http://www.w3.org/2000/svg" xmlns:xlink="http://www.w3.org/1999/xlink" x="0px" y="0px"
	 width="260px" height="90px" viewBox="0 0 260 90" enable-background="new 0 0 260 90" xml:space="preserve">
<g>
	<path fill="#FFFFFF" d="M46.721,21.243l-1.224,39.24h1.656l12.528-39.24h14.112L56.009,73.082h-21.6l1.944-33.191l-9.648,33.191
		h-21.6l0.504-51.839h14.112l-1.296,39.24h1.656l12.6-39.24H46.721z"/>
	<path fill="#FFFFFF" d="M107.85,73.082H71.706l9.144-51.839h36.144l-2.016,11.232H91.793l-1.656,9.72h19.152l-2.016,11.232H88.122
		l-1.44,8.424h23.184L107.85,73.082z"/>
	<path fill="#FFFFFF" d="M130.889,74.09c-9.984,0-14.976-3.455-14.976-10.367c0-0.96,0.096-1.991,0.288-3.096l1.512-8.928
		c0.767-4.609,2.868-8.137,6.3-10.584c3.431-2.448,7.787-3.696,13.067-3.744c10.225,0,15.336,3.553,15.336,10.656
		c0,1.537-0.18,2.916-0.539,4.14c-0.36,1.225-0.732,2.053-1.116,2.484l-0.576,0.721h-12.239c1.199-1.056,1.799-2.305,1.799-3.744
		c0-2.592-1.295-3.889-3.887-3.889c-1.537,0-2.857,0.457-3.961,1.368c-1.104,0.913-1.824,2.304-2.16,4.177l-0.936,5.256
		c-0.097,0.48-0.145,0.936-0.145,1.367c0,2.545,1.584,3.816,4.752,3.816c1.056,0,2.004-0.336,2.845-1.008
		c0.839-0.672,1.332-1.416,1.476-2.232l11.952,0.145C148.097,69.604,141.832,74.09,130.889,74.09z"/>
	<path fill="#FFFFFF" d="M177.472,37.442c5.185,0,9.096,1.128,11.736,3.384c2.063,1.776,3.096,4.248,3.096,7.416
		c0,1.057-0.12,2.209-0.36,3.457l-1.512,8.424c-0.912,5.088-3.036,8.688-6.371,10.799c-3.338,2.113-7.789,3.168-13.356,3.168
		c-5.569,0-9.648-1.055-12.24-3.168c-1.921-1.584-2.88-3.959-2.88-7.127c0-1.104,0.119-2.328,0.359-3.672l1.513-8.424
		C159.135,42.194,165.809,37.442,177.472,37.442z M179.416,53.139c0.096-0.479,0.145-1.092,0.145-1.836s-0.313-1.572-0.937-2.484
		c-0.624-0.911-1.717-1.367-3.276-1.367c-1.561,0-2.869,0.516-3.924,1.547c-1.057,1.033-1.729,2.412-2.016,4.141l-0.937,5.4
		c-0.097,0.48-0.144,1.092-0.144,1.836s0.312,1.547,0.936,2.412c0.623,0.863,1.716,1.295,3.276,1.295
		c1.56,0,2.868-0.539,3.924-1.619s1.728-2.388,2.017-3.924L179.416,53.139z"/>
	<path fill="#FFFFFF" d="M211.743,63.867c1.104,0,2.088-0.24,2.952-0.721l-0.359,8.137c-2.258,1.871-4.824,2.807-7.705,2.807
		c-4.368,0-7.199-1.008-8.496-3.023c-0.863-1.344-1.295-2.771-1.295-4.283c0-1.513,0.096-2.845,0.287-3.996l4.32-24.336h12.24
		l-4.032,22.68c-0.048,0.287-0.071,0.553-0.071,0.791C209.584,63.219,210.303,63.867,211.743,63.867z M202.887,26.714
		c0-3.071,0.685-5.315,2.053-6.732c1.367-1.415,3.492-2.124,6.372-2.124c4.032,0,6.048,1.776,6.048,5.328
		c0,3.024-0.684,5.232-2.053,6.624c-1.367,1.393-3.516,2.088-6.443,2.088C204.879,31.898,202.887,30.17,202.887,26.714z"/>
	<path fill="#FFFFFF" d="M242.271,50.979c0-2.063-0.997-3.096-2.988-3.096c-1.992,0-3.636,0.744-4.932,2.232l-4.032,22.967h-12.24
		l6.12-34.631h11.376l-0.792,4.248c2.832-3.503,6.408-5.256,10.728-5.256c4.32,0,7.129,1.057,8.425,3.168
		c0.815,1.345,1.224,2.88,1.224,4.608c0,1.728-0.12,3.336-0.359,4.824l-1.944,11.088c-0.049,0.287-0.072,0.553-0.072,0.791
		c0,1.297,0.72,1.945,2.16,1.945c1.104,0,2.088-0.24,2.952-0.721l-0.36,8.137c-2.257,1.871-4.824,2.807-7.704,2.807
		c-6.527,0-9.791-2.735-9.791-8.207c0-0.96,0.096-1.992,0.287-3.096l1.729-9.576C242.198,52.347,242.271,51.604,242.271,50.979z"/>
</g>
</svg>
